<svg width="1120" height="232" viewBox="0 0 1120 232" fill="none" xmlns="http://www.w3.org/2000/svg">
  <defs>
    <linearGradient id="avm-gold" x1="18" y1="26" x2="880" y2="206" gradientUnits="userSpaceOnUse">
      <stop stop-color="#F2D390" />
      <stop offset="0.35" stop-color="#D7B166" />
      <stop offset="0.72" stop-color="#BE9345" />
      <stop offset="1" stop-color="#8D6422" />
    </linearGradient>
    <filter id="avm-shadow" x="0" y="0" width="1120" height="232" filterUnits="userSpaceOnUse" color-interpolation-filters="sRGB">
      <feOffset dy="5" />
      <feGaussianBlur stdDeviation="4.5" />
      <feColorMatrix
        type="matrix"
        values="0 0 0 0 0.16 0 0 0 0 0.10 0 0 0 0 0.03 0 0 0 0.42 0"
      />
      <feBlend in2="SourceGraphic" result="shape" />
    </filter>
  </defs>
  <g filter="url(#avm-shadow)">
    <g stroke="url(#avm-gold)" stroke-width="4" stroke-linecap="round" stroke-linejoin="round">
      <path d="M18 196H126" />
      <path d="M50 196V120L71 102V196" />
      <path d="M71 196V86L95 67V196" />
      <path d="M95 196V30" />
      <path d="M95 30V12" />
      <path d="M50 120L71 102" />
      <path d="M71 86L95 67" />
      <path d="M58 128V143" />
      <path d="M58 151V166" />
      <path d="M67 120V135" />
      <path d="M67 143V158" />
      <path d="M79 101V118" />
      <path d="M79 127V144" />
      <path d="M79 153V170" />
      <path d="M90 92V109" />
      <path d="M90 118V135" />
      <path d="M90 144V161" />
      <path d="M105 78V97" />
      <path d="M105 106V125" />
      <path d="M105 134V153" />
      <path d="M114 84V103" />
      <path d="M114 112V131" />
      <path d="M114 140V159" />
    </g>
    <text
      x="88"
      y="192"
      fill="url(#avm-gold)"
      font-family="Georgia, 'Times New Roman', serif"
      font-size="138"
      font-weight="600"
      letter-spacing="0.03em"
    >
      AVM
    </text>
    <text
      x="520"
      y="155"
      fill="url(#avm-gold)"
      font-family="Georgia, 'Times New Roman', serif"
      font-size="56"
      font-weight="500"
      letter-spacing="0.018em"
    >
      Asset Direction
    </text>
    <text
      x="338"
      y="210"
      fill="url(#avm-gold)"
      fill-opacity="0.98"
      font-family="Arial, Helvetica, sans-serif"
      font-size="24"
      font-weight="700"
      letter-spacing="0.15em"
    >
      GESTIONE E VALORIZZAZIONE IMMOBILIARE
    </text>
  </g>
</svg>
