<svg width="760" height="164" viewBox="0 0 760 164" fill="none" xmlns="http://www.w3.org/2000/svg">
  <defs>
    <linearGradient id="avm-gold" x1="32" y1="22" x2="500" y2="170" gradientUnits="userSpaceOnUse">
      <stop stop-color="#E0C37E" />
      <stop offset="0.45" stop-color="#C6A75E" />
      <stop offset="1" stop-color="#A97B28" />
    </linearGradient>
  </defs>
  <g stroke="url(#avm-gold)" stroke-width="3.2" stroke-linecap="round" stroke-linejoin="round">
    <path d="M18 150H132" />
    <path d="M44 150V86L62 72V150" />
    <path d="M62 150V58L86 39V150" />
    <path d="M86 150V14" />
    <path d="M44 86L62 72" />
    <path d="M62 58L86 39" />
    <path d="M51 94V107" />
    <path d="M51 116V129" />
    <path d="M58 88V101" />
    <path d="M58 110V123" />
    <path d="M69 74V89" />
    <path d="M69 98V113" />
    <path d="M69 122V137" />
    <path d="M78 66V81" />
    <path d="M78 90V105" />
    <path d="M78 114V129" />
  </g>
  <text x="70" y="116" fill="url(#avm-gold)" font-family="Georgia, 'Times New Roman', serif" font-size="106" font-weight="600" letter-spacing="0.04em">
    AVM
  </text>
  <text x="325" y="121" fill="url(#avm-gold)" font-family="Georgia, 'Times New Roman', serif" font-size="48" font-weight="500" letter-spacing="0.03em">
    Asset Direction
  </text>
</svg>
